# xmcd CD database file
# Copyright (C) 1995-1998 Ti Kan
#
# Track frame offsets:
#	150
#	16800
#	34650
#	48987
#	67725
#	83500
#	97972
#	108825
#	130810
#	147075
#	162232
#
# Disc length: 2395 seconds
#
# Revision: 1
# Processed by: cddbd v1.5PL3 Copyright (c) Steve Scherf et al.
# Submitted via: CDex 1.30Release
#
DISCID=7809590b
DTITLE=BATON ROUGE - the first cut
DYEAR=1998
DGENRE=Country
TTITLE0=Rip Off The Knob
TTITLE1=Picture In The Rain
TTITLE2=Angeline
TTITLE3=Just When I Needed You Most
TTITLE4=Two More Bottles Of Wine
TTITLE5=Summertime Blues
TTITLE6=Wellcome To The Rodeo
TTITLE7=Sylvias's Mother
TTITLE8=Heartbreak Radio
TTITLE9=If My Love Lived In Texas
TTITLE10=I Wand You Bad
EXTD=YEAR: 1998 ID3G:   2
EXTT0=
EXTT1=
EXTT2=
EXTT3=
EXTT4=
EXTT5=
EXTT6=
EXTT7=
EXTT8=
EXTT9=
EXTT10=
PLAYORDER=
